<?xml version="1.0" encoding="utf-8"?>
<!-- Uploaded to: SVG Repo, www.svgrepo.com, Generator: SVG Repo Mixer Tools -->
<svg width="800px" height="800px" viewBox="0 0 16 16" version="1.1" xmlns="http://www.w3.org/2000/svg" xmlns:xlink="http://www.w3.org/1999/xlink">
  <rect width="16" height="16" id="icon-bound" fill="none" />
  <path d="M14,12.5C14,11.837 13.737,11.201 13.268,10.732C12.799,10.263 12.163,10 11.5,10C9.447,10 6.553,10 4.5,10C3.837,10 3.201,10.263 2.732,10.732C2.263,11.201 2,11.837 2,12.5C2,14.147 2,15 2,15L14,15C14,15 14,14.147 14,12.5ZM12,6L14,6C14.53,6 15.039,6.211 15.414,6.586C15.789,6.961 16,7.47 16,8L16,11L14.663,11C14.101,9.818 12.896,9 11.5,9L10.645,9C11.476,8.267 12,7.194 12,6ZM1.337,11L0,11C0,11 0,9.392 0,8C0,7.47 0.211,6.961 0.586,6.586C0.961,6.211 1.47,6 2,6L4,6C4,7.194 4.524,8.267 5.355,9L4.5,9C3.104,9 1.899,9.817 1.337,11ZM8,3C9.656,3 11,4.344 11,6C11,7.656 9.656,9 8,9C6.344,9 5,7.656 5,6C5,4.344 6.344,3 8,3ZM4.127,4.996C4.085,4.999 4.043,5 4,5C2.896,5 2,4.104 2,3C2,1.896 2.896,1 4,1C4.954,1 5.753,1.67 5.952,2.564C5.061,3.097 4.394,3.966 4.127,4.996ZM10.048,2.564C10.247,1.67 11.046,1 12,1C13.104,1 14,1.896 14,3C14,4.104 13.104,5 12,5C11.957,5 11.915,4.999 11.873,4.996C11.606,3.966 10.939,3.097 10.048,2.564Z" />
</svg>